<mxfile host="app.diagrams.net" modified="2023-08-17T12:42:14.851Z" agent="Mozilla/5.0 (Windows NT 10.0; Win64; x64) AppleWebKit/537.36 (KHTML, like Gecko) Chrome/115.0.0.0 Safari/537.36" etag="2SKcQhY0st8jaBELNADa" version="21.1.9" type="device">
  <diagram name="Страница 1" id="9NsVWEb74GYOAqQptNjA">
    <mxGraphModel dx="2074" dy="1110" grid="1" gridSize="10" guides="1" tooltips="1" connect="1" arrows="1" fold="1" page="1" pageScale="1" pageWidth="827" pageHeight="1169" math="0" shadow="0">
      <root>
        <mxCell id="0" />
        <mxCell id="1" parent="0" />
        <mxCell id="N7eLp2h4NudPW77KjkHY-44" value="" style="shape=flexArrow;endArrow=classic;html=1;rounded=0;exitX=0.718;exitY=0.267;exitDx=0;exitDy=0;exitPerimeter=0;entryX=0.25;entryY=0;entryDx=0;entryDy=0;fillColor=#f5f5f5;strokeColor=#666666;" edge="1" parent="1" source="N7eLp2h4NudPW77KjkHY-41" target="N7eLp2h4NudPW77KjkHY-36">
          <mxGeometry width="50" height="50" relative="1" as="geometry">
            <mxPoint x="584" y="276" as="sourcePoint" />
            <mxPoint x="500" y="370" as="targetPoint" />
          </mxGeometry>
        </mxCell>
        <mxCell id="N7eLp2h4NudPW77KjkHY-42" value="" style="shape=flexArrow;endArrow=classic;html=1;rounded=0;exitX=0.299;exitY=0.275;exitDx=0;exitDy=0;exitPerimeter=0;entryX=0.75;entryY=0;entryDx=0;entryDy=0;fillColor=#f5f5f5;strokeColor=#666666;" edge="1" parent="1" source="N7eLp2h4NudPW77KjkHY-41" target="N7eLp2h4NudPW77KjkHY-17">
          <mxGeometry width="50" height="50" relative="1" as="geometry">
            <mxPoint x="490" y="480" as="sourcePoint" />
            <mxPoint x="540" y="430" as="targetPoint" />
          </mxGeometry>
        </mxCell>
        <mxCell id="N7eLp2h4NudPW77KjkHY-9" value="" style="group;" vertex="1" connectable="0" parent="1">
          <mxGeometry x="350" y="530" width="660" height="80" as="geometry" />
        </mxCell>
        <mxCell id="N7eLp2h4NudPW77KjkHY-1" value="" style="shape=dataStorage;whiteSpace=wrap;html=1;fixedSize=1;rotation=-180;fillColor=#fff2cc;strokeColor=#d6b656;" vertex="1" parent="N7eLp2h4NudPW77KjkHY-9">
          <mxGeometry width="100" height="80" as="geometry" />
        </mxCell>
        <mxCell id="N7eLp2h4NudPW77KjkHY-2" value="" style="shape=dataStorage;whiteSpace=wrap;html=1;fixedSize=1;rotation=-180;fillColor=#fff2cc;strokeColor=#d6b656;" vertex="1" parent="N7eLp2h4NudPW77KjkHY-9">
          <mxGeometry x="80" width="100" height="80" as="geometry" />
        </mxCell>
        <mxCell id="N7eLp2h4NudPW77KjkHY-3" value="" style="shape=dataStorage;whiteSpace=wrap;html=1;fixedSize=1;rotation=-180;fillColor=#fff2cc;strokeColor=#d6b656;" vertex="1" parent="N7eLp2h4NudPW77KjkHY-9">
          <mxGeometry x="160" width="100" height="80" as="geometry" />
        </mxCell>
        <mxCell id="N7eLp2h4NudPW77KjkHY-4" value="" style="shape=dataStorage;whiteSpace=wrap;html=1;fixedSize=1;rotation=-180;fillColor=#fff2cc;strokeColor=#d6b656;" vertex="1" parent="N7eLp2h4NudPW77KjkHY-9">
          <mxGeometry x="240" width="100" height="80" as="geometry" />
        </mxCell>
        <mxCell id="N7eLp2h4NudPW77KjkHY-5" value="" style="shape=dataStorage;whiteSpace=wrap;html=1;fixedSize=1;rotation=-180;fillColor=#fff2cc;strokeColor=#d6b656;" vertex="1" parent="N7eLp2h4NudPW77KjkHY-9">
          <mxGeometry x="320" width="100" height="80" as="geometry" />
        </mxCell>
        <mxCell id="N7eLp2h4NudPW77KjkHY-6" value="" style="shape=dataStorage;whiteSpace=wrap;html=1;fixedSize=1;rotation=-180;fillColor=#fff2cc;strokeColor=#d6b656;" vertex="1" parent="N7eLp2h4NudPW77KjkHY-9">
          <mxGeometry x="400" width="100" height="80" as="geometry" />
        </mxCell>
        <mxCell id="N7eLp2h4NudPW77KjkHY-7" value="" style="shape=dataStorage;whiteSpace=wrap;html=1;fixedSize=1;rotation=-180;fillColor=#fff2cc;strokeColor=#d6b656;" vertex="1" parent="N7eLp2h4NudPW77KjkHY-9">
          <mxGeometry x="480" width="100" height="80" as="geometry" />
        </mxCell>
        <mxCell id="N7eLp2h4NudPW77KjkHY-8" value="" style="shape=dataStorage;whiteSpace=wrap;html=1;fixedSize=1;rotation=-180;fillColor=#fff2cc;strokeColor=#d6b656;" vertex="1" parent="N7eLp2h4NudPW77KjkHY-9">
          <mxGeometry x="560" width="100" height="80" as="geometry" />
        </mxCell>
        <mxCell id="N7eLp2h4NudPW77KjkHY-38" value="&lt;font style=&quot;font-size: 25px;&quot;&gt;RabbitMQ&lt;/font&gt;" style="text;html=1;strokeColor=#d6b656;fillColor=#fff2cc;align=center;verticalAlign=middle;whiteSpace=wrap;rounded=0;" vertex="1" parent="N7eLp2h4NudPW77KjkHY-9">
          <mxGeometry x="260" y="25" width="130" height="30" as="geometry" />
        </mxCell>
        <mxCell id="N7eLp2h4NudPW77KjkHY-18" value="" style="group" vertex="1" connectable="0" parent="1">
          <mxGeometry x="300" y="350" width="190" height="120" as="geometry" />
        </mxCell>
        <mxCell id="N7eLp2h4NudPW77KjkHY-17" value="" style="rounded=1;whiteSpace=wrap;html=1;fillColor=#d5e8d4;strokeColor=#82b366;" vertex="1" parent="N7eLp2h4NudPW77KjkHY-18">
          <mxGeometry width="180" height="110" as="geometry" />
        </mxCell>
        <mxCell id="N7eLp2h4NudPW77KjkHY-10" value="&lt;font style=&quot;font-size: 25px;&quot;&gt;API&lt;/font&gt;" style="rounded=1;whiteSpace=wrap;html=1;fillColor=#d5e8d4;strokeColor=#82b366;" vertex="1" parent="N7eLp2h4NudPW77KjkHY-18">
          <mxGeometry x="10" y="10" width="180" height="110" as="geometry" />
        </mxCell>
        <mxCell id="N7eLp2h4NudPW77KjkHY-19" value="" style="group" vertex="1" connectable="0" parent="1">
          <mxGeometry x="540" y="350" width="190" height="120" as="geometry" />
        </mxCell>
        <mxCell id="N7eLp2h4NudPW77KjkHY-20" value="" style="rounded=1;whiteSpace=wrap;html=1;fillColor=#d5e8d4;strokeColor=#82b366;" vertex="1" parent="N7eLp2h4NudPW77KjkHY-19">
          <mxGeometry width="180" height="110" as="geometry" />
        </mxCell>
        <mxCell id="N7eLp2h4NudPW77KjkHY-21" value="&lt;font style=&quot;font-size: 25px;&quot;&gt;Engine&lt;/font&gt;" style="rounded=1;whiteSpace=wrap;html=1;fillColor=#d5e8d4;strokeColor=#82b366;" vertex="1" parent="N7eLp2h4NudPW77KjkHY-19">
          <mxGeometry x="10" y="10" width="180" height="110" as="geometry" />
        </mxCell>
        <mxCell id="N7eLp2h4NudPW77KjkHY-22" value="" style="group" vertex="1" connectable="0" parent="1">
          <mxGeometry x="460" y="660" width="190" height="120" as="geometry" />
        </mxCell>
        <mxCell id="N7eLp2h4NudPW77KjkHY-23" value="" style="rounded=1;whiteSpace=wrap;html=1;fillColor=#d5e8d4;strokeColor=#82b366;" vertex="1" parent="N7eLp2h4NudPW77KjkHY-22">
          <mxGeometry width="180" height="110" as="geometry" />
        </mxCell>
        <mxCell id="N7eLp2h4NudPW77KjkHY-24" value="&lt;font style=&quot;font-size: 25px;&quot;&gt;Executor&lt;/font&gt;" style="rounded=1;whiteSpace=wrap;html=1;fillColor=#d5e8d4;strokeColor=#82b366;" vertex="1" parent="N7eLp2h4NudPW77KjkHY-22">
          <mxGeometry x="10" y="10" width="180" height="110" as="geometry" />
        </mxCell>
        <mxCell id="N7eLp2h4NudPW77KjkHY-25" value="" style="group;fontSize=25;" vertex="1" connectable="0" parent="1">
          <mxGeometry x="700" y="660" width="190" height="120" as="geometry" />
        </mxCell>
        <mxCell id="N7eLp2h4NudPW77KjkHY-26" value="" style="rounded=1;whiteSpace=wrap;html=1;fillColor=#d5e8d4;strokeColor=#82b366;" vertex="1" parent="N7eLp2h4NudPW77KjkHY-25">
          <mxGeometry width="180" height="110" as="geometry" />
        </mxCell>
        <mxCell id="N7eLp2h4NudPW77KjkHY-27" value="&lt;font style=&quot;font-size: 25px;&quot;&gt;Notifier&lt;/font&gt;" style="rounded=1;whiteSpace=wrap;html=1;fillColor=#d5e8d4;strokeColor=#82b366;" vertex="1" parent="N7eLp2h4NudPW77KjkHY-25">
          <mxGeometry x="10" y="10" width="180" height="110" as="geometry" />
        </mxCell>
        <mxCell id="N7eLp2h4NudPW77KjkHY-28" value="" style="shape=flexArrow;endArrow=classic;startArrow=classic;html=1;rounded=0;entryX=0.5;entryY=1;entryDx=0;entryDy=0;exitX=0.5;exitY=1;exitDx=0;exitDy=0;fillColor=#f5f5f5;strokeColor=#666666;" edge="1" parent="1" source="N7eLp2h4NudPW77KjkHY-1" target="N7eLp2h4NudPW77KjkHY-10">
          <mxGeometry width="100" height="100" relative="1" as="geometry">
            <mxPoint x="360" y="580" as="sourcePoint" />
            <mxPoint x="460" y="480" as="targetPoint" />
          </mxGeometry>
        </mxCell>
        <mxCell id="N7eLp2h4NudPW77KjkHY-29" value="" style="shape=flexArrow;endArrow=classic;startArrow=classic;html=1;rounded=0;entryX=0.5;entryY=1;entryDx=0;entryDy=0;exitX=0.5;exitY=1;exitDx=0;exitDy=0;fillColor=#f5f5f5;strokeColor=#666666;" edge="1" parent="1" source="N7eLp2h4NudPW77KjkHY-4" target="N7eLp2h4NudPW77KjkHY-21">
          <mxGeometry width="100" height="100" relative="1" as="geometry">
            <mxPoint x="360" y="580" as="sourcePoint" />
            <mxPoint x="460" y="480" as="targetPoint" />
          </mxGeometry>
        </mxCell>
        <mxCell id="N7eLp2h4NudPW77KjkHY-30" value="" style="shape=flexArrow;endArrow=classic;startArrow=classic;html=1;rounded=0;entryX=0.5;entryY=0;entryDx=0;entryDy=0;exitX=0.5;exitY=0;exitDx=0;exitDy=0;fillColor=#f5f5f5;strokeColor=#666666;" edge="1" parent="1" source="N7eLp2h4NudPW77KjkHY-3" target="N7eLp2h4NudPW77KjkHY-24">
          <mxGeometry width="100" height="100" relative="1" as="geometry">
            <mxPoint x="360" y="580" as="sourcePoint" />
            <mxPoint x="460" y="480" as="targetPoint" />
          </mxGeometry>
        </mxCell>
        <mxCell id="N7eLp2h4NudPW77KjkHY-31" value="&lt;font style=&quot;font-size: 25px;&quot;&gt;External Services&lt;/font&gt;" style="ellipse;shape=cloud;whiteSpace=wrap;html=1;fillColor=#e1d5e7;strokeColor=#9673a6;" vertex="1" parent="1">
          <mxGeometry x="510" y="830" width="340" height="110" as="geometry" />
        </mxCell>
        <mxCell id="N7eLp2h4NudPW77KjkHY-32" value="" style="shape=flexArrow;endArrow=classic;html=1;rounded=0;entryX=0.5;entryY=0;entryDx=0;entryDy=0;exitX=0.5;exitY=0;exitDx=0;exitDy=0;fillColor=#f5f5f5;strokeColor=#666666;" edge="1" parent="1" source="N7eLp2h4NudPW77KjkHY-6" target="N7eLp2h4NudPW77KjkHY-27">
          <mxGeometry width="50" height="50" relative="1" as="geometry">
            <mxPoint x="490" y="580" as="sourcePoint" />
            <mxPoint x="540" y="530" as="targetPoint" />
          </mxGeometry>
        </mxCell>
        <mxCell id="N7eLp2h4NudPW77KjkHY-33" value="" style="shape=flexArrow;endArrow=classic;startArrow=classic;html=1;rounded=0;entryX=0.5;entryY=1;entryDx=0;entryDy=0;exitX=0.25;exitY=0.25;exitDx=0;exitDy=0;exitPerimeter=0;fillColor=#f5f5f5;strokeColor=#666666;" edge="1" parent="1" source="N7eLp2h4NudPW77KjkHY-31" target="N7eLp2h4NudPW77KjkHY-24">
          <mxGeometry width="100" height="100" relative="1" as="geometry">
            <mxPoint x="470" y="600" as="sourcePoint" />
            <mxPoint x="570" y="500" as="targetPoint" />
          </mxGeometry>
        </mxCell>
        <mxCell id="N7eLp2h4NudPW77KjkHY-34" value="" style="shape=flexArrow;endArrow=classic;html=1;rounded=0;entryX=0.625;entryY=0.2;entryDx=0;entryDy=0;entryPerimeter=0;exitX=0.5;exitY=1;exitDx=0;exitDy=0;startArrow=block;fillColor=#f5f5f5;strokeColor=#666666;" edge="1" parent="1" source="N7eLp2h4NudPW77KjkHY-27" target="N7eLp2h4NudPW77KjkHY-31">
          <mxGeometry width="50" height="50" relative="1" as="geometry">
            <mxPoint x="490" y="580" as="sourcePoint" />
            <mxPoint x="540" y="530" as="targetPoint" />
          </mxGeometry>
        </mxCell>
        <mxCell id="N7eLp2h4NudPW77KjkHY-35" value="" style="group" vertex="1" connectable="0" parent="1">
          <mxGeometry x="780" y="350" width="190" height="120" as="geometry" />
        </mxCell>
        <mxCell id="N7eLp2h4NudPW77KjkHY-36" value="" style="rounded=1;whiteSpace=wrap;html=1;fillColor=#d5e8d4;strokeColor=#82b366;" vertex="1" parent="N7eLp2h4NudPW77KjkHY-35">
          <mxGeometry width="180" height="110" as="geometry" />
        </mxCell>
        <mxCell id="N7eLp2h4NudPW77KjkHY-37" value="&lt;font style=&quot;font-size: 25px;&quot;&gt;Monitoring&lt;/font&gt;" style="rounded=1;whiteSpace=wrap;html=1;fillColor=#d5e8d4;strokeColor=#82b366;" vertex="1" parent="N7eLp2h4NudPW77KjkHY-35">
          <mxGeometry x="10" y="10" width="180" height="110" as="geometry" />
        </mxCell>
        <mxCell id="N7eLp2h4NudPW77KjkHY-39" value="" style="shape=flexArrow;endArrow=classic;html=1;rounded=0;exitX=0.5;exitY=1;exitDx=0;exitDy=0;entryX=0.5;entryY=1;entryDx=0;entryDy=0;fillColor=#f5f5f5;strokeColor=#666666;" edge="1" parent="1" source="N7eLp2h4NudPW77KjkHY-37" target="N7eLp2h4NudPW77KjkHY-7">
          <mxGeometry width="50" height="50" relative="1" as="geometry">
            <mxPoint x="490" y="570" as="sourcePoint" />
            <mxPoint x="540" y="520" as="targetPoint" />
          </mxGeometry>
        </mxCell>
        <mxCell id="N7eLp2h4NudPW77KjkHY-41" value="&lt;font style=&quot;font-size: 25px;&quot;&gt;Postgres&lt;/font&gt;" style="shape=cylinder3;whiteSpace=wrap;html=1;boundedLbl=1;backgroundOutline=1;size=15;fillColor=#dae8fc;strokeColor=#6c8ebf;" vertex="1" parent="1">
          <mxGeometry x="547.5" y="170" width="185" height="100" as="geometry" />
        </mxCell>
        <mxCell id="N7eLp2h4NudPW77KjkHY-43" value="" style="shape=flexArrow;endArrow=classic;startArrow=classic;html=1;rounded=0;entryX=0.5;entryY=1;entryDx=0;entryDy=0;entryPerimeter=0;exitX=0.5;exitY=0;exitDx=0;exitDy=0;fillColor=#f5f5f5;strokeColor=#666666;" edge="1" parent="1" source="N7eLp2h4NudPW77KjkHY-21" target="N7eLp2h4NudPW77KjkHY-41">
          <mxGeometry width="100" height="100" relative="1" as="geometry">
            <mxPoint x="470" y="510" as="sourcePoint" />
            <mxPoint x="570" y="410" as="targetPoint" />
          </mxGeometry>
        </mxCell>
      </root>
    </mxGraphModel>
  </diagram>
</mxfile>
